<svg width="101.89" height="91.727" version="1.1" viewBox="0 0 26.95757 24.269406" xmlns="http://www.w3.org/2000/svg">
 <g transform="translate(-2.3962 -246.31)">
  <g transform="matrix(-1 0 0 1 90.603 -4.3153)">
   <rect transform="scale(-1,1)" x="-69.695" y="260.72" width="5.0675" height="11.402" rx="2.217" ry="2.4282" fill="#ebe6d5"/>
   <rect transform="scale(-1,1)" x="-66.316" y="262.57" width="5.0675" height="11.402" rx="2.217" ry="2.4282" fill="#fff9e6"/>
   <rect transform="scale(-1,1)" x="-82.574" y="261.65" width="5.0675" height="11.402" rx="2.217" ry="2.4282" fill="#ebe6d5"/>
   <rect transform="scale(-1,1)" x="-79.196" y="263.49" width="5.0675" height="11.402" rx="2.217" ry="2.4282" fill="#fff9e6"/>
   <path d="m77.929 252.28v2.0801c0 2.227-0.44335 2.7493-2.4423 2.7493h-9.6061c-0.72451 0-0.95783-0.2875-0.95783-1.044v-1.8302c0-0.97529-0.71685-1.7605-1.6073-1.7605h-0.45927c-0.89049 0-1.6073 0.7852-1.6073 1.7605v4.7456c0 0.09196 0.008229 0.18135 0.020522 0.26944-0.013102 0.09426-0.020522 0.18998-0.020522 0.2873v5.3843c0 1.3452 1.2868 2.428 2.8852 2.428h15.555c1.5984 1e-5 2.8852-1.0828 2.8852-2.428v-4.5397c0-0.90107 0.13077-0.96889 1.1046-0.96889h2.8766c0.91451 0 1.6507-0.61956 1.6507-1.3892v-3.0804c0-0.76964-0.73615-1.3894-1.6507-1.3894-2.467-0.09107-2.7678 0.03795-2.7678-1.2744 0-0.91451-0.93309-1.6509-1.7027-1.6509h-2.5083c-0.75891 0-1.6479 0.80317-1.6479 1.6509z" fill="#fff9e6"/>
   <rect transform="scale(-1)" x="-81.671" y="-256.92" width="2.9642" height="5.6737" rx=".75864" ry=".86853" fill="#ebe5d5"/>
  </g>
 </g>
</svg>
